<?xml version="1.0" standalone="no"?>
<!DOCTYPE svg PUBLIC "-//W3C//DTD SVG 20010904//EN"
 "http://www.w3.org/TR/2001/REC-SVG-20010904/DTD/svg10.dtd">
<svg version="1.0" xmlns="http://www.w3.org/2000/svg"
 width="155.000000pt" height="155.000000pt" viewBox="0 0 155.000000 155.000000"
 preserveAspectRatio="xMidYMid meet">
<metadata>
Created by potrace 1.14, written by Peter Selinger 2001-2017
</metadata>
<g transform="translate(0.000000,155.000000) scale(0.100000,-0.100000)"
fill="#000000" stroke="none">
<path d="M639 1370 c-36 -5 -95 -16 -130 -26 -72 -21 -144 -23 -335 -10 -128
8 -132 8 -154 -14 -18 -18 -21 -29 -16 -59 7 -45 72 -221 115 -314 30 -64 31
-71 21 -125 -35 -195 -29 -305 19 -402 47 -93 155 -175 266 -203 190 -48 510
-48 700 0 111 28 219 110 266 203 48 97 54 207 19 402 -10 54 -9 61 21 125 43
93 108 269 115 314 5 29 2 41 -15 58 -25 25 -34 25 -239 10 -135 -10 -159 -10
-212 5 -74 21 -258 46 -325 44 -27 0 -80 -4 -116 -8z"/>
</g>
</svg>
